<svg width="49" height="51" viewBox="0 0 49 51" fill="none" xmlns="http://www.w3.org/2000/svg">
<rect x="1.45996" y="3.38" width="47" height="47" rx="23.5" fill="#FFD284"/>
<rect x="1.45996" y="3.38" width="47" height="47" rx="23.5" stroke="#6366F1"/>
<g clip-path="url(#clip0_15047_469)">
<path d="M31.8306 20.2398C31.7951 25.3794 29.3848 27.0809 27.0453 27.01C24.7059 26.9391 29.9874 19.9562 31.2989 20.1689" fill="#442200"/>
<mask id="mask0_15047_469" style="mask-type:luminance" maskUnits="userSpaceOnUse" x="-5" y="-6" width="54" height="48">
<path d="M-4.39526 21.9766C5.24609 45.9382 41.1885 50.3335 47.1435 18.7865C50.759 -0.992492 47.2852 -5.88406 47.2852 -5.88406C47.2852 -5.88406 -3.54456 -5.5296 -3.54456 -5.45871" fill="white"/>
</mask>
<g mask="url(#mask0_15047_469)">
<path d="M-1.02783 45.6192C11.5556 28.7114 38.5301 28.7114 49.1285 46.3281L-1.02783 45.6192Z" fill="#883311"/>
</g>
<mask id="mask1_15047_469" style="mask-type:luminance" maskUnits="userSpaceOnUse" x="-5" y="-3" width="54" height="44">
<path d="M-4.39526 22.8298C5.24609 44.4767 41.1885 48.4474 47.1435 19.9478C50.759 2.07958 47.2852 -2.33945 47.2852 -2.33945C47.2852 -2.33945 -3.54456 -2.01923 -3.54456 -1.95518" fill="white"/>
</mask>
<g mask="url(#mask1_15047_469)">
<path d="M-1.59497 46.3636C12.6898 28.7823 38.5655 29.5975 49.3766 47.1434L-1.59497 46.3636Z" fill="#EEEEDD"/>
</g>
<path d="M29.6685 33.6738C31.4763 35.0917 27.1519 38.211 20.9133 36.5095C26.7974 37.7502 31.4054 34.6309 28.7469 33.603" fill="#883311"/>
<path d="M16.4824 4.43077C12.9733 7.93994 12.158 10.882 12.1226 13.7177C13.1151 13.7177 14.1075 13.505 13.6113 13.9658C12.9733 18.432 13.6467 21.4449 14.0367 22.5083C14.4266 23.5717 15.1 24.2452 14.7101 25.8048C14.3202 27.3644 14.5683 29.7393 20.5233 30.2001C20.2397 30.4128 19.6017 34.6663 19.5308 34.56C21.374 36.9349 28.4987 36.1905 28.4632 33.213C28.4278 30.2356 28.5696 22.1538 28.5696 22.1538L29.4912 5.38782" fill="#883311"/>
<path d="M15.9508 6.20308C12.0518 9.57046 12.0518 12.9733 12.0872 14.2848C13.0797 14.2848 13.1151 14.1785 13.1151 14.1785C13.1151 14.1785 13.186 19.6372 14.4266 22.2247C14.7811 23.3236 15.4546 24.3515 15.171 25.6276C14.8874 26.9036 14.9938 28.0025 16.6598 28.8177C18.3257 29.633 19.4246 29.7393 19.4246 29.7393C19.4246 29.7393 19.5663 33.3548 19.5309 34.241C19.4954 35.1271 21.6577 35.6234 23.9262 35.5879C26.1948 35.5525 28.038 34.4537 28.0734 33.1067C28.1089 31.7598 28.1089 25.6276 28.1089 25.6276C28.1089 25.6276 33.1777 19.1055 29.8103 5.63594" fill="#FF8855"/>
<path d="M18.7511 29.952C20.6298 30.4128 24.4225 29.9874 26.0885 28.0025C24.4579 29.6684 20.5943 30.1292 18.6802 29.5621M16.4471 23.5717C17.475 25.3794 20.4171 25.2377 21.3387 23.5717H16.4471ZM16.4471 11.5909C14.8166 11.5909 14.6039 11.4137 18.6093 11.3782C22.5793 11.3782 23.3237 11.5909 21.1614 11.5909M16.1635 10.9174C13.7178 10.9174 15.1002 10.563 18.5384 10.5984C22.0122 10.6338 25.3086 10.9174 20.7715 10.9174" fill="#883311"/>
<path d="M15.5608 22.8982C16.8014 25.0604 20.9132 24.8478 22.0829 23.1109L15.5608 22.8982Z" fill="#EE6633"/>
<path d="M19.2117 23.2172C14.1429 23.6426 13.3631 23.678 13.3276 23.6426C13.3631 20.7006 18.2901 20.4524 18.999 22.6501" fill="#442200"/>
<path d="M19.1054 22.083C14.4974 22.2247 14.8873 18.2548 18.0421 17.9712L19.1054 22.083Z" fill="#FF8855"/>
<path d="M19.1054 22.083C14.4974 22.2247 14.8873 18.2548 18.0421 17.9712C15.3127 18.432 15.1355 21.8348 19.07 21.7639" fill="#883311"/>
<path d="M17.5813 23.1818C18.8574 20.2398 23.3236 20.8778 23.359 23.8553L17.5813 23.1818Z" fill="#442200"/>
<path d="M17.5458 14.3557C17.723 16.9433 13.3277 17.794 13.434 14.2848L17.5458 14.3557ZM19.9916 14.2139C19.9916 17.3332 24.3514 17.475 24.1742 14.1785L19.9916 14.2139Z" fill="white"/>
<path d="M15.1 15.4191C15.4916 15.4191 15.809 15.1017 15.809 14.7102C15.809 14.3186 15.4916 14.0012 15.1 14.0012C14.7085 14.0012 14.3911 14.3186 14.3911 14.7102C14.3911 15.1017 14.7085 15.4191 15.1 15.4191Z" fill="black"/>
<path d="M21.8703 15.4191C22.2618 15.4191 22.5792 15.1017 22.5792 14.7102C22.5792 14.3186 22.2618 14.0012 21.8703 14.0012C21.4788 14.0012 21.1614 14.3186 21.1614 14.7102C21.1614 15.1017 21.4788 15.4191 21.8703 15.4191Z" fill="black"/>
<path d="M14.533 14.9228C14.6504 14.9228 14.7457 14.8276 14.7457 14.7102C14.7457 14.5927 14.6504 14.4975 14.533 14.4975C14.4155 14.4975 14.3203 14.5927 14.3203 14.7102C14.3203 14.8276 14.4155 14.9228 14.533 14.9228Z" fill="white"/>
<path d="M21.3033 14.9228C21.4207 14.9228 21.5159 14.8276 21.5159 14.7102C21.5159 14.5927 21.4207 14.4975 21.3033 14.4975C21.1858 14.4975 21.0906 14.5927 21.0906 14.7102C21.0906 14.8276 21.1858 14.9228 21.3033 14.9228Z" fill="white"/>
<path d="M11.8036 14.462C12.5479 12.0871 17.794 12.7961 17.9003 14.462H11.8036ZM19.4245 14.462C19.5663 12.5834 25.1313 12.3353 25.5921 14.462H19.4245ZM29.7393 18.6092C26.0529 12.4062 28.1442 8.61341 28.8177 7.79815C24.2097 8.11717 22.6855 8.08172 17.0496 7.86905C11.4137 7.65637 8.04627 5.67138 7.97538 4.1472C7.90449 2.62301 10.8111 -0.248124 19.7435 0.389906C18.8219 0.567137 18.7156 1.94954 18.7156 1.94954C18.7156 1.94954 19.8853 0.673476 21.5867 0.708922C21.0196 1.09883 20.6297 1.70141 20.6297 2.16221C30.0938 1.41785 34.4182 4.67889 31.8661 6.912C32.8586 6.41575 33.6738 6.48665 33.6738 6.48665L32.7522 7.33735L34.1346 7.44369C34.1346 7.44369 33.3903 8.32985 32.3623 8.50708C35.8715 11.7681 32.5041 19.4599 30.7318 19.7081" fill="#442200"/>
<path d="M28.7114 16.6242C29.8103 13.3986 33.284 14.143 33.5321 18.5738C33.7802 23.0046 30.0584 24.0679 29.2786 22.5792" fill="#883311"/>
<path d="M29.1012 22.5792C30.4481 24.0325 33.1775 22.5083 33.2484 18.8219C33.3193 15.1355 30.3064 13.0442 28.2505 17.0496" fill="#FF8855"/>
</g>
<defs>
<clipPath id="clip0_15047_469">
<rect width="46.08" height="46.08" rx="23.04" fill="white"/>
</clipPath>
</defs>
</svg>
