<svg width="135" height="34" viewBox="0 0 135 34" fill="none" xmlns="http://www.w3.org/2000/svg">
<path d="M15.6344 6.89864e-05C15.6668 4.6221e-05 15.6992 2.34553e-05 15.7326 0C16.5867 0.000947745 17.412 0.0905709 18.2464 0.278419C18.2806 0.286047 18.3149 0.293674 18.3502 0.301533C20.3193 0.751261 22.2026 1.6356 24.0171 2.50755C24.0785 2.53702 24.1399 2.5664 24.2014 2.59577C24.8301 2.89651 25.4525 3.20976 26.0744 3.52452C26.9774 3.98104 27.8933 4.40945 28.8118 4.83325C28.8541 4.85275 28.8541 4.85275 28.8972 4.87264C31.3878 6.0209 33.9711 6.86266 39.6351 7.7264C39.6609 7.7284 39.6867 7.7304 39.7133 7.73245C40.4565 7.7889 41.1979 7.80929 41.9432 7.80864C41.9866 7.80862 42.03 7.8086 42.0747 7.80858C42.7986 7.80766 43.519 7.79349 44.2407 7.73484C44.2801 7.73164 44.2801 7.73164 44.3204 7.72838C47.1321 7.49665 49.8275 6.82215 52.4918 5.91291C52.5566 5.89083 52.6214 5.86876 52.6861 5.84668C53.3026 5.63652 53.9189 5.42585 54.5345 5.21308C57.2333 4.28059 59.9683 3.47141 62.9231 3.28123C62.9539 3.27933 62.9848 3.27743 63.0166 3.27547C65.7925 3.11237 68.8172 3.49175 71.1071 5.20438C71.1273 5.21946 71.1475 5.23454 71.1683 5.25008C71.467 5.4751 71.7444 5.71972 72.0127 5.98039C72.0335 6.0006 72.0544 6.0208 72.0758 6.04162C72.341 6.30034 72.5929 6.562 72.8177 6.85761C72.8326 6.87676 72.8475 6.8959 72.8628 6.91562C74.2998 8.7643 74.9137 10.9714 74.6625 13.3018C74.4014 15.3564 73.4181 17.3224 71.7884 18.6221C71.5078 18.8389 71.209 19.0333 70.9141 19.2296C70.8843 19.2495 70.8544 19.2694 70.8236 19.2899C70.7411 19.3394 70.6606 19.3756 70.5704 19.4087C70.739 19.7135 70.9173 20.0112 71.1005 20.3073C71.2361 20.5264 71.3702 20.7464 71.5033 20.967C71.67 21.2432 71.8378 21.5186 72.0064 21.7936C72.2087 22.1236 72.4092 22.4546 72.6089 22.7862C72.7611 23.0389 72.9142 23.2909 73.0693 23.5418C73.2367 23.8127 73.4018 24.085 73.5661 24.3578C73.7757 24.706 73.9869 25.0531 74.1993 25.3995C74.3623 25.6657 74.5242 25.9325 74.6855 26.1998C74.7926 26.377 74.9003 26.5539 75.0087 26.7303C75.021 26.7502 75.0332 26.7701 75.0458 26.7905C75.1053 26.8874 75.1649 26.9843 75.2246 27.081C75.2461 27.1159 75.2675 27.1508 75.2896 27.1868C75.3086 27.2176 75.3276 27.2483 75.3471 27.28C75.4031 27.3759 75.452 27.474 75.501 27.5736C74.7604 27.5799 74.0199 27.5847 73.2793 27.5876C72.9355 27.589 72.5916 27.5909 72.2478 27.594C71.9481 27.5967 71.6485 27.5984 71.3488 27.599C71.1901 27.5994 71.0314 27.6002 70.8727 27.6022C70.7234 27.604 70.574 27.6046 70.4247 27.6042C70.3698 27.6042 70.315 27.6048 70.2602 27.6058C69.8452 27.6133 69.8452 27.6133 69.7302 27.5147C69.686 27.445 69.6575 27.3817 69.6313 27.3037C69.6149 27.274 69.5986 27.2443 69.5817 27.2136C69.5683 27.1873 69.5549 27.1609 69.541 27.1337C69.5255 27.1034 69.5099 27.0731 69.4939 27.0419C69.4777 27.01 69.4615 26.9781 69.4447 26.9452C69.3095 26.682 69.1717 26.4204 69.0297 26.1608C68.8662 25.8616 68.7089 25.5596 68.5531 25.2563C68.4346 25.0262 68.3132 24.7979 68.189 24.5708C68.0455 24.3084 67.9064 24.044 67.7698 23.778C67.6165 23.4796 67.4593 23.1838 67.2985 22.8895C67.1612 22.6376 67.029 22.3832 66.8976 22.1281C66.7837 21.9075 66.6667 21.6888 66.5476 21.471C66.3842 21.1719 66.2269 20.8698 66.0711 20.5665C65.9526 20.3364 65.8312 20.1081 65.707 19.881C65.5635 19.6186 65.4244 19.3543 65.2877 19.0882C65.1346 18.79 64.9775 18.4944 64.8167 18.2003C64.6766 17.9432 64.5412 17.6837 64.4071 17.4234C64.3322 17.2782 64.2571 17.1332 64.1798 16.9892C64.1671 16.9655 64.1544 16.9419 64.1413 16.9175C64.1181 16.8744 64.0948 16.8314 64.0713 16.7884C63.9964 16.6494 63.9964 16.6494 63.9964 16.5746C64.0183 16.5714 64.0401 16.5682 64.0626 16.5649C65.4582 16.36 65.4582 16.36 66.8495 16.1275C66.8942 16.1197 66.8942 16.1197 66.9398 16.1118C67.2506 16.0574 67.5577 15.995 67.8632 15.9155C67.8889 15.9088 67.9147 15.9022 67.9412 15.8953C68.6948 15.6918 69.2762 15.1479 69.6622 14.4803C70.1881 13.5354 70.3595 12.4585 70.0807 11.4035C69.8153 10.4657 69.2662 9.63858 68.4909 9.05068C68.4725 9.03666 68.4542 9.02264 68.4352 9.00819C67.2137 8.09413 65.6263 7.84611 64.141 7.85504C64.1043 7.85514 64.0676 7.85524 64.0297 7.85535C63.3408 7.85816 62.6654 7.9047 61.9839 8.00476C61.9597 8.00827 61.9355 8.01179 61.9106 8.01541C59.8305 8.32018 57.8209 8.95375 55.8236 9.59406C52.7755 10.5713 49.7083 11.4404 44.4147 12.0788C44.3876 12.0808 44.3605 12.0828 44.3325 12.0849C44.1455 12.0984 43.9584 12.1102 43.7711 12.121C43.7436 12.1226 43.716 12.1242 43.6876 12.1259C43.0562 12.1621 42.4244 12.1615 41.7922 12.161C41.751 12.161 41.751 12.161 41.7089 12.161C40.9004 12.1607 40.0935 12.1579 39.2871 12.0934C39.2041 12.0868 39.121 12.0804 39.038 12.074C37.2196 11.9325 35.4184 11.6585 33.6417 11.2437C33.6046 11.2351 33.6046 11.2351 33.5667 11.2262C31.9116 10.8383 30.278 10.3212 28.7112 9.65799C28.6717 9.64137 28.6321 9.62475 28.5914 9.60763C27.5124 9.15241 26.4641 8.63193 25.4179 8.10597C25.397 8.09545 25.376 8.08493 25.3544 8.07409C24.9244 7.85796 24.495 7.6408 24.0703 7.41425C23.792 7.26599 23.511 7.1235 23.2293 6.98203C23.2019 6.96823 23.1744 6.95443 23.1462 6.94022C22.6464 6.68934 22.1431 6.44788 21.634 6.21656C21.5904 6.19657 21.5468 6.17657 21.5032 6.15655C20.7647 5.81787 20.016 5.51534 19.2526 5.23812C19.2138 5.22398 19.175 5.20985 19.135 5.19529C18.3464 4.91141 17.5337 4.70973 16.7035 4.59707C16.6792 4.59362 16.6549 4.59016 16.6298 4.5866C14.8809 4.37291 13.0081 4.80926 11.4006 5.495C11.2117 5.57551 11.2117 5.57551 11.1022 5.57551C11.0172 5.38292 10.9325 5.19024 10.8479 4.99747C10.8191 4.93197 10.7903 4.86649 10.7614 4.80103C10.7198 4.7067 10.6784 4.61229 10.637 4.51786C10.6242 4.48882 10.6113 4.45978 10.5981 4.42986C10.5299 4.27362 10.4734 4.12139 10.4313 3.95602C11.6245 3.38245 11.6245 3.38245 11.9742 3.38245C11.9621 3.34426 11.95 3.30608 11.9375 3.26673C11.9218 3.21674 11.9061 3.16675 11.8904 3.11675C11.8784 3.07898 11.8784 3.07898 11.8661 3.04044C11.8065 2.85026 11.8065 2.85026 11.8065 2.77514C11.0521 3.03409 11.0521 3.03409 10.3175 3.34383C10.2301 3.38245 10.2301 3.38245 10.163 3.38245C10.0753 3.15173 9.9878 2.92092 9.90062 2.68999C9.86013 2.58276 9.81955 2.47556 9.77879 2.36844C9.73193 2.24525 9.68542 2.12193 9.63893 1.9986C9.62426 1.96019 9.60958 1.92177 9.59446 1.88219C9.58103 1.8464 9.5676 1.81061 9.55377 1.77373C9.53589 1.72653 9.53589 1.72653 9.51765 1.67837C9.49219 1.59426 9.49219 1.59426 9.49219 1.4593C11.2569 0.332877 13.5833 0.00137414 15.6344 6.89864e-05ZM14.9529 2.1485C14.9288 2.15166 14.9047 2.15482 14.88 2.15808C14.8549 2.16156 14.8299 2.16504 14.8041 2.16862C14.7642 2.174 14.7642 2.174 14.7235 2.17948C14.6676 2.18705 14.6118 2.19471 14.556 2.20246C14.4711 2.2142 14.3861 2.22556 14.3012 2.23689C14.2466 2.24434 14.1921 2.2518 14.1375 2.25929C14.0999 2.26431 14.0999 2.26431 14.0615 2.26942C13.9084 2.29096 13.7654 2.32428 13.6177 2.37027C13.6281 2.45885 13.6386 2.54741 13.6492 2.63596C13.6536 2.67374 13.6536 2.67374 13.658 2.71227C13.6725 2.84921 13.6725 2.84921 13.7184 2.97758C14.0734 2.9367 14.4282 2.89352 14.7829 2.84961C14.8321 2.84354 14.8813 2.83751 14.9305 2.83153C15.0006 2.823 15.0706 2.81431 15.1406 2.80558C15.1816 2.80054 15.2226 2.79549 15.2648 2.79029C15.3596 2.78058 15.3596 2.78058 15.429 2.7414C15.4068 2.54099 15.3847 2.34057 15.3619 2.13409C15.1546 2.13193 15.1546 2.13193 14.9529 2.1485ZM17.2402 2.13409C17.207 2.34564 17.1738 2.55718 17.1395 2.77514C17.1996 2.78536 17.2596 2.79558 17.3214 2.80611C17.7621 2.88247 18.197 2.96597 18.6292 3.08156C18.7397 3.11532 18.7397 3.11532 18.8166 3.11253C18.8447 3.024 18.8726 2.93543 18.9005 2.84684C18.9085 2.82165 18.9165 2.79647 18.9247 2.77053C18.9685 2.64044 18.9685 2.64044 18.9843 2.50522C18.6779 2.4042 18.3715 2.32688 18.0556 2.26272C17.9932 2.24958 17.9932 2.24958 17.9295 2.23616C17.6997 2.18879 17.4741 2.15267 17.2402 2.13409ZM20.7284 3.04505C20.662 3.24547 20.5956 3.44588 20.5272 3.65236C20.7449 3.73988 20.9628 3.82698 21.1809 3.91369C21.2551 3.94326 21.3292 3.97295 21.4033 4.00275C21.5097 4.04551 21.6162 4.08785 21.7227 4.13012C21.756 4.14358 21.7892 4.15704 21.8234 4.1709C21.8543 4.18306 21.8852 4.19523 21.917 4.20776C21.9578 4.22405 21.9578 4.22405 21.9994 4.24068C22.0756 4.26814 22.0756 4.26814 22.1707 4.22594C22.211 4.14787 22.2452 4.07313 22.2776 3.99187C22.2868 3.97006 22.2959 3.94825 22.3053 3.92577C22.3554 3.80982 22.3554 3.80982 22.372 3.6861C21.9563 3.50823 21.5394 3.33505 21.1163 3.1758C21.0813 3.16264 21.0464 3.14949 21.0104 3.13594C20.873 3.07447 20.873 3.07447 20.7284 3.04505ZM24.049 4.46211C23.9605 4.65139 23.8719 4.84067 23.7807 5.03568C23.9606 5.13046 23.9606 5.13046 24.1407 5.22514C24.3066 5.31277 24.4712 5.40242 24.6348 5.49433C24.6709 5.51446 24.707 5.53459 24.7441 5.55532C24.8153 5.59514 24.8863 5.63528 24.9572 5.67577C24.9898 5.69396 25.0225 5.71216 25.0562 5.7309C25.0851 5.7473 25.1141 5.76371 25.1439 5.78061C25.2203 5.8173 25.2203 5.8173 25.2964 5.80592C25.3991 5.75861 25.4347 5.65806 25.4829 5.56075C25.4988 5.53045 25.4988 5.53045 25.515 5.49953C25.5734 5.39132 25.5734 5.39132 25.5919 5.27186C25.2046 5.05731 24.8161 4.84529 24.4242 4.63924C24.3906 4.62153 24.357 4.60382 24.3224 4.58557C24.2915 4.56936 24.2605 4.55315 24.2286 4.53644C24.2012 4.52206 24.1737 4.50767 24.1455 4.49285C24.0892 4.45965 24.0892 4.45965 24.049 4.46211ZM62.6796 5.30019C62.6506 5.30311 62.6216 5.30603 62.5916 5.30903C62.5306 5.31519 62.4695 5.3214 62.4085 5.32767C62.3152 5.33722 62.222 5.34656 62.1287 5.35588C62.0692 5.36191 62.0097 5.36795 61.9501 5.374C61.9224 5.37678 61.8946 5.37956 61.8661 5.38242C61.7359 5.39588 61.6087 5.41141 61.4808 5.44056C61.4856 5.50945 61.4905 5.57833 61.4955 5.64721C61.4982 5.68557 61.5009 5.72393 61.5037 5.76345C61.5136 5.87091 61.5297 5.97532 61.5479 6.08161C61.7376 6.06301 61.9273 6.04441 62.117 6.0258C62.1814 6.01948 62.2458 6.01317 62.3102 6.00685C62.4033 5.99773 62.4964 5.9886 62.5895 5.97947C62.6179 5.97669 62.6462 5.97391 62.6754 5.97105C62.8698 5.95197 63.0642 5.93254 63.2585 5.91291C63.2594 5.8377 63.2601 5.76249 63.2606 5.68728C63.261 5.64539 63.2614 5.60351 63.2618 5.56036C63.259 5.4587 63.2487 5.37029 63.225 5.27186C63.0412 5.26854 62.8624 5.28135 62.6796 5.30019ZM65.1033 5.3056C65.0479 5.41692 65.0569 5.54148 65.0508 5.66408C65.0494 5.69113 65.048 5.71818 65.0465 5.74606C65.0429 5.81291 65.0395 5.87978 65.0362 5.94665C65.0902 5.95532 65.0902 5.95532 65.1453 5.96416C65.2802 5.98582 65.415 6.00761 65.5498 6.02943C65.6079 6.03882 65.6661 6.04818 65.7242 6.0575C65.8082 6.07099 65.8922 6.08459 65.9762 6.09821C66.0018 6.10229 66.0274 6.10637 66.0538 6.11057C66.2077 6.13568 66.359 6.16655 66.5105 6.20359C66.5894 6.22072 66.5894 6.22072 66.7132 6.21656C66.7357 6.13436 66.7581 6.05212 66.7803 5.96984C66.7899 5.93491 66.7899 5.93491 66.7997 5.89927C66.8265 5.79962 66.8474 5.71298 66.8474 5.60925C65.9852 5.3875 65.9852 5.3875 65.1033 5.3056ZM59.1952 5.87456C59.1694 5.88106 59.1436 5.88756 59.117 5.89425C59.0626 5.90801 59.0082 5.92188 58.9539 5.93587C58.8716 5.95702 58.7892 5.97779 58.7068 5.99851C58.4542 6.06248 58.2044 6.12796 57.959 6.21656C57.9632 6.23985 57.9674 6.26314 57.9717 6.28714C57.9816 6.34269 57.9916 6.39824 58.0016 6.45379C58.033 6.58213 58.079 6.70074 58.1267 6.82387C58.6766 6.69726 59.2232 6.55738 59.7702 6.419C59.7655 6.36601 59.7606 6.31303 59.7557 6.26006C59.753 6.23055 59.7503 6.20105 59.7475 6.17065C59.7325 6.04706 59.7027 5.93156 59.6696 5.81169C59.5031 5.80386 59.3553 5.83311 59.1952 5.87456ZM27.2019 6.14908C27.156 6.23111 27.1107 6.31336 27.0656 6.3958C27.0525 6.41909 27.0394 6.44238 27.026 6.46638C26.9926 6.52795 26.9628 6.5915 26.9335 6.65518C26.9559 6.75616 26.9559 6.75616 27.0184 6.79245C27.0404 6.80341 27.0625 6.81437 27.0852 6.82566C27.1102 6.83827 27.1352 6.85088 27.1609 6.86387C27.1881 6.87716 27.2153 6.89045 27.2433 6.90414C27.2711 6.91806 27.299 6.93199 27.3276 6.94634C27.4169 6.99088 27.5065 7.03495 27.596 7.07903C27.6558 7.10885 27.7157 7.1387 27.7755 7.16858C28.1278 7.37185 28.1278 7.37185 28.51 7.46492C28.6262 7.19771 28.6262 7.19771 28.7448 6.92509C28.3943 6.73525 28.0419 6.55557 27.6814 6.38592C27.52 6.30998 27.3605 6.2307 27.2019 6.14908ZM68.6251 6.2503C68.5365 6.42845 68.448 6.60659 68.3567 6.79013C68.454 6.8635 68.5319 6.91602 68.638 6.96938C68.6665 6.98392 68.6949 6.99846 68.7243 7.01344C68.7545 7.02882 68.7847 7.0442 68.8158 7.06005C69.0856 7.19853 69.3404 7.34884 69.5866 7.52641C69.7022 7.61288 69.7022 7.61288 69.8392 7.62136C69.9193 7.54812 69.9795 7.46936 70.0422 7.38057C70.0659 7.34752 70.0896 7.31447 70.114 7.28041C70.174 7.20238 70.174 7.20238 70.168 7.12753C70.0964 7.07281 70.0251 7.02281 69.9499 6.97359C69.9161 6.9512 69.9161 6.9512 69.8815 6.92835C69.284 6.49343 69.284 6.49343 68.6251 6.2503ZM56.0333 6.80381C56.0019 6.81418 55.9704 6.82455 55.938 6.83524C55.7943 6.88308 55.6507 6.93124 55.5071 6.97962C55.4312 7.0051 55.3552 7.03036 55.2791 7.0554C55.1698 7.0914 55.0608 7.1281 54.9518 7.16496C54.9176 7.17607 54.8834 7.18718 54.8482 7.19863C54.801 7.21483 54.801 7.21483 54.7529 7.23135C54.7111 7.24529 54.7111 7.24529 54.6686 7.2595C54.5998 7.29076 54.5998 7.29076 54.5768 7.36002C54.5678 7.47835 54.6137 7.58303 54.6531 7.69266C54.6613 7.71619 54.6694 7.73972 54.6778 7.76397C54.6979 7.82185 54.7185 7.87958 54.7391 7.93728C54.7735 7.92572 54.808 7.91416 54.8435 7.90225C55.4819 7.68818 55.4819 7.68818 55.563 7.66105C55.6162 7.64318 55.6694 7.62523 55.7226 7.60722C55.8395 7.5677 55.9563 7.52946 56.0745 7.49385C56.111 7.48274 56.1474 7.47163 56.185 7.46018C56.2163 7.45112 56.2476 7.44206 56.2798 7.43273C56.354 7.40398 56.354 7.40398 56.3782 7.33379C56.3855 7.21544 56.3403 7.11066 56.3008 7.00101C56.2886 6.96571 56.2886 6.96571 56.2761 6.92971C56.256 6.87182 56.2355 6.81409 56.2149 6.75639C56.1521 6.75639 56.0924 6.78433 56.0333 6.80381ZM30.3883 7.63362C30.3545 7.71578 30.321 7.79802 30.2876 7.88034C30.278 7.90363 30.2684 7.92692 30.2586 7.95092C30.2176 8.05251 30.187 8.13023 30.187 8.24093C30.7283 8.46593 31.2725 8.66936 31.8305 8.84824C31.8596 8.76684 31.8882 8.68531 31.9165 8.60363C31.9289 8.56912 31.9289 8.56912 31.9416 8.53391C31.9714 8.44673 31.9982 8.36575 31.9984 8.27292C31.9429 8.16465 31.8362 8.14689 31.7273 8.11138C31.7031 8.10298 31.6788 8.09459 31.6539 8.08594C31.576 8.05906 31.4978 8.03294 31.4197 8.00686C31.3432 7.98083 31.2668 7.95464 31.1905 7.92843C31.1404 7.91128 31.0904 7.8942 31.0404 7.87718C30.8205 7.80214 30.6041 7.71974 30.3883 7.63362ZM52.6221 7.9358C52.5944 7.94369 52.5668 7.95158 52.5383 7.95971C52.5085 7.96853 52.4787 7.97735 52.4481 7.98644C52.402 7.99975 52.402 7.99975 52.3549 8.01333C52.2899 8.03217 52.2249 8.05115 52.1599 8.07026C52.0607 8.09944 51.9614 8.12821 51.862 8.15691C51.7988 8.17527 51.7356 8.19366 51.6724 8.21207C51.6428 8.22068 51.6132 8.22929 51.5826 8.23817C51.4467 8.27821 51.314 8.31929 51.1837 8.37589C51.1933 8.43285 51.2032 8.48978 51.2131 8.54669C51.2185 8.5784 51.224 8.61011 51.2296 8.64277C51.2531 8.7583 51.2852 8.86999 51.3179 8.9832C51.7147 8.89382 52.1044 8.78859 52.4939 8.67111C52.5463 8.65545 52.5986 8.63981 52.6509 8.62419C52.7768 8.58658 52.9027 8.54877 53.0285 8.51085C53.0031 8.41579 52.9772 8.32096 52.9509 8.22617C52.9402 8.18556 52.9402 8.18556 52.9292 8.14413C52.922 8.11836 52.9147 8.09259 52.9073 8.06604C52.8975 8.03026 52.8975 8.03026 52.8876 7.99376C52.8787 7.97512 52.8699 7.95648 52.8608 7.93728C52.7517 7.90071 52.7279 7.90504 52.6221 7.9358ZM71.3063 8.65635C71.2876 8.66998 71.269 8.68362 71.2498 8.69767C71.1568 8.76781 71.1112 8.80224 71.0736 8.91572C71.1206 8.99451 71.169 9.06708 71.2224 9.14135C71.4706 9.50068 71.6622 9.88798 71.8115 10.299C72.0284 10.2598 72.2172 10.1936 72.4152 10.0966C72.2618 9.56623 71.9879 9.09718 71.6773 8.6458C71.6585 8.61819 71.6397 8.59057 71.6203 8.56211C71.5987 8.53674 71.5987 8.53674 71.5767 8.51085C71.466 8.51085 71.3915 8.59163 71.3063 8.65635ZM33.7424 8.74702C33.7198 8.82287 33.6975 8.8988 33.6753 8.97476C33.6628 9.01704 33.6504 9.05931 33.6376 9.10287C33.6027 9.22115 33.6027 9.22115 33.6082 9.35433C33.9475 9.44985 34.2876 9.53024 34.6328 9.60038C34.7103 9.61611 34.7876 9.63209 34.865 9.6481C34.9145 9.65827 34.9639 9.66841 35.0134 9.67855C35.0364 9.68329 35.0594 9.68803 35.0831 9.69292C35.2001 9.71722 35.2001 9.71722 35.3188 9.72547C35.3358 9.6503 35.3525 9.57508 35.3691 9.49983C35.3784 9.45795 35.3878 9.41607 35.3974 9.37292C35.416 9.27186 35.4212 9.18629 35.4194 9.08442C35.1968 9.03622 34.9741 8.98819 34.7514 8.94027C34.6756 8.92394 34.5999 8.90757 34.5241 8.89117C34.4153 8.86763 34.3065 8.84421 34.1977 8.82083C34.1637 8.81345 34.1297 8.80607 34.0947 8.79846C34.0632 8.79171 34.0316 8.78495 33.9991 8.77799C33.9575 8.769 33.9575 8.769 33.9149 8.75983C33.8387 8.74408 33.8387 8.74408 33.7424 8.74702ZM49.0746 8.87526C49.0448 8.88189 49.015 8.88851 48.9843 8.89534C48.8886 8.91668 48.7931 8.93834 48.6975 8.96C48.6338 8.97424 48.5701 8.98845 48.5065 9.00264C48.2465 9.06078 47.9871 9.11967 47.729 9.18564C47.7394 9.25523 47.7499 9.32482 47.7604 9.3944C47.7663 9.43315 47.7721 9.4719 47.7781 9.51183C47.7932 9.60614 47.8102 9.69946 47.8296 9.79295C48.0574 9.77473 48.2759 9.74029 48.4986 9.68949C48.5286 9.68279 48.5587 9.6761 48.5897 9.66921C48.6843 9.64808 48.779 9.62668 48.8736 9.60527C48.9383 9.59078 49.003 9.5763 49.0677 9.56184C49.2253 9.52662 49.3828 9.49115 49.5402 9.45555C49.535 9.40692 49.5297 9.35828 49.5244 9.30965C49.52 9.26903 49.52 9.26903 49.5155 9.22759C49.5059 9.14508 49.4927 9.06441 49.4752 8.9832C49.4701 8.95815 49.4649 8.9331 49.4596 8.90728C49.4038 8.74277 49.2013 8.84629 49.0746 8.87526ZM37.1971 9.42181C37.1857 9.48503 37.1746 9.54831 37.1636 9.6116C37.1573 9.64682 37.1511 9.68205 37.1447 9.71835C37.1304 9.82351 37.1275 9.92316 37.13 10.0291C37.4633 10.0941 37.7972 10.1457 38.1342 10.1873C38.1865 10.1939 38.1865 10.1939 38.2399 10.2007C38.4525 10.2261 38.6602 10.2372 38.8742 10.2316C38.9 10.0269 38.9109 9.83056 38.9077 9.62425C38.8363 9.58836 38.7862 9.58073 38.7074 9.57119C38.6662 9.56613 38.6662 9.56613 38.6242 9.56097C38.5945 9.55745 38.5648 9.55393 38.5342 9.55031C38.5035 9.54661 38.4729 9.54292 38.4414 9.53911C38.3765 9.53131 38.3115 9.52357 38.2466 9.51589C38.1477 9.50417 38.0488 9.49216 37.95 9.48013C37.8869 9.47258 37.8237 9.46504 37.7606 9.45753C37.7165 9.45215 37.7165 9.45215 37.6715 9.44667C37.5121 9.42803 37.3576 9.41811 37.1971 9.42181ZM45.3754 9.51763C45.347 9.52054 45.3187 9.52346 45.2895 9.52646C45.2301 9.53261 45.1706 9.53882 45.1112 9.5451C45.0204 9.55468 44.9295 9.56401 44.8386 9.57331C44.7806 9.57934 44.7227 9.58538 44.6647 9.59143C44.6376 9.59421 44.6105 9.59699 44.5826 9.59985C44.4652 9.61238 44.3556 9.6291 44.2407 9.65799C44.2518 9.86953 44.2629 10.0811 44.2743 10.299C44.4634 10.2812 44.6525 10.2633 44.8415 10.2451C44.9057 10.2389 44.9699 10.2329 45.0341 10.2268C45.529 10.1819 45.529 10.1819 46.0184 10.0966C46.0137 10.0143 46.0088 9.93211 46.0037 9.84988C46.0024 9.82659 46.0011 9.8033 45.9997 9.77931C45.9933 9.67582 45.9841 9.58816 45.9513 9.48929C45.757 9.4863 45.5685 9.49712 45.3754 9.51763ZM40.7189 9.72547C40.7078 9.93701 40.6968 10.1486 40.6854 10.3665C41.0575 10.4063 41.4268 10.4041 41.8006 10.4024C41.865 10.4022 41.9294 10.402 41.9939 10.4019C42.1503 10.4015 42.3066 10.401 42.463 10.4003C42.464 10.3314 42.4646 10.2625 42.4651 10.1936C42.4655 10.1552 42.4659 10.1169 42.4663 10.0774C42.4652 9.94648 42.4652 9.94648 42.4295 9.75921C41.865 9.74807 41.3005 9.73694 40.7189 9.72547ZM72.1469 11.986C72.1408 12.0581 72.1347 12.1301 72.1284 12.2044C72.1221 12.2761 72.1158 12.3478 72.1094 12.4195C72.1051 12.4684 72.1009 12.5173 72.0968 12.5662C72.0711 12.8731 72.031 13.1702 71.9657 13.4713C71.9423 13.5712 71.9423 13.5712 71.9456 13.673C72.2445 13.7398 72.2445 13.7398 72.5494 13.8079C72.7445 13.219 72.7713 12.6017 72.7506 11.986C72.5514 11.986 72.3521 11.986 72.1469 11.986ZM71.2748 15.2925C71.2129 15.3706 71.2129 15.3706 71.1532 15.4717C70.9031 15.8617 70.5981 16.1849 70.2686 16.5071C70.3872 16.6686 70.5082 16.8264 70.6375 16.9795C71.1233 16.7563 71.5908 16.0916 71.845 15.6299C71.845 15.6076 71.845 15.5853 71.845 15.5624C71.769 15.5171 71.6928 15.4722 71.6165 15.4274C71.595 15.4146 71.5734 15.4017 71.5512 15.3884C71.4217 15.3116 71.4217 15.3116 71.2748 15.2925ZM68.5952 17.5848C68.5613 17.5988 68.5275 17.6128 68.4926 17.6273C68.4378 17.65 68.4378 17.65 68.3819 17.6732C68.014 17.8238 67.6433 17.952 67.2634 18.0678C67.1352 18.1077 67.008 18.1507 66.8809 18.1941C66.8943 18.2185 66.9076 18.243 66.9214 18.2681C67.0114 18.4333 67.1009 18.5982 67.1828 18.7676C67.412 18.7519 67.6218 18.7138 67.841 18.6453C67.8699 18.6364 67.8988 18.6275 67.9286 18.6184C68.3387 18.4883 68.7224 18.3095 69.0946 18.0929C69.0388 17.8849 68.931 17.7054 68.8263 17.5193C68.7373 17.5193 68.6775 17.5502 68.5952 17.5848ZM68.2016 19.8768C68.1783 19.8827 68.1551 19.8886 68.1311 19.8946C68.0716 19.9104 68.0128 19.9293 67.9542 19.9485C67.9432 19.9708 67.9321 19.9931 67.9207 20.016C67.9531 20.0894 67.9531 20.0894 68.0036 20.1713C68.0225 20.2035 68.0415 20.2357 68.0609 20.2689C68.0818 20.3037 68.1026 20.3386 68.124 20.3745C68.1672 20.4477 68.2103 20.5209 68.2534 20.5941C68.2758 20.632 68.2983 20.6699 68.3214 20.709C68.4337 20.899 68.5439 21.0902 68.6544 21.2812C68.6941 21.3498 68.7339 21.4183 68.7736 21.4868C68.8024 21.5364 68.8311 21.5859 68.8599 21.6355C68.9864 21.5858 69.1036 21.5289 69.2225 21.4626C69.2552 21.4444 69.288 21.4262 69.3217 21.4075C69.3464 21.3937 69.3711 21.3798 69.3965 21.3656C69.3769 21.2328 69.3368 21.1385 69.2688 21.0234C69.2494 20.9903 69.23 20.9572 69.21 20.9231C69.1893 20.8882 69.1685 20.8533 69.147 20.8173C69.1042 20.7447 69.0614 20.6722 69.0187 20.5996C68.9868 20.5459 68.9868 20.5459 68.9544 20.4911C68.899 20.3967 68.8448 20.3017 68.7912 20.2063C68.7761 20.1796 68.761 20.1529 68.7454 20.1254C68.7174 20.0759 68.6897 20.0263 68.6623 19.9764C68.6221 19.9039 68.6221 19.9039 68.558 19.8136C68.433 19.8136 68.3215 19.8449 68.2016 19.8768ZM70.3021 22.9176C70.2143 22.9651 70.1307 23.0142 70.0464 23.0673C70.0227 23.0819 69.999 23.0966 69.9746 23.1117C69.9159 23.148 69.8574 23.1846 69.799 23.2213C69.9416 23.4871 70.0883 23.7506 70.2373 24.0129C70.273 24.0757 70.3086 24.1387 70.3442 24.2016C70.3673 24.2423 70.3904 24.283 70.4135 24.3237C70.434 24.3599 70.4545 24.396 70.4756 24.4333C70.5375 24.5381 70.603 24.6387 70.6711 24.7395C70.7291 24.7079 70.7871 24.6763 70.8451 24.6446C70.8935 24.6182 70.8935 24.6182 70.9429 24.5913C71.0324 24.5413 71.1203 24.4894 71.2077 24.4359C71.1602 24.3077 71.1015 24.1926 71.0335 24.0742C71.0123 24.0374 70.9912 24.0005 70.9694 23.9626C70.9468 23.9235 70.9243 23.8845 70.9017 23.8454C70.8787 23.8057 70.8558 23.766 70.8329 23.7262C70.6197 23.2714 70.6197 23.2714 70.3021 22.9176ZM71.8408 26.1566C71.8187 26.1695 71.7966 26.1823 71.7739 26.1956C71.7192 26.2274 71.6647 26.2595 71.6102 26.2915C71.6325 26.4064 71.6769 26.4937 71.7351 26.5947C71.7531 26.6262 71.7712 26.6577 71.7898 26.6902C71.8087 26.7229 71.8276 26.7555 71.8471 26.7892C71.8661 26.8224 71.8852 26.8556 71.9048 26.8898C71.9518 26.9716 71.999 27.0534 72.0463 27.135C72.1836 27.135 72.2732 27.0686 72.388 27.0001C72.4099 26.9872 72.4318 26.9743 72.4544 26.9611C72.5086 26.9293 72.5625 26.8972 72.6165 26.8651C72.5113 26.6428 72.3995 26.4261 72.2727 26.2156C72.2503 26.1786 72.228 26.1415 72.205 26.1033C72.1859 26.0764 72.1667 26.0494 72.1469 26.0216C72.0314 26.0216 71.9383 26.0991 71.8408 26.1566Z" fill="#000A3A"/>
<path d="M59.7641 14.4868C59.846 14.5624 59.9254 14.6405 60.005 14.7186C60.0352 14.7465 60.0654 14.7744 60.0965 14.8031C61.3673 16.0097 61.871 17.9733 61.9265 19.675C61.9306 19.8679 61.931 20.0607 61.93 20.2537C61.9294 20.37 61.93 20.4863 61.9306 20.6026C61.9325 22.6103 61.4104 24.6683 59.989 26.1401C58.9789 27.1504 57.6116 27.5826 56.2097 27.5795C55.1234 27.5693 54.1001 27.2478 53.2968 26.4937C53.2672 26.4663 53.2376 26.4388 53.2071 26.4105C52.8611 26.0766 52.5995 25.6925 52.3577 25.2791C52.3244 25.2234 52.2912 25.1677 52.257 25.1104C52.246 27.7269 52.2349 30.3434 52.2235 33.0392C50.685 33.0392 49.1464 33.0392 47.5613 33.0392C47.5613 26.6148 47.5613 20.1905 47.5613 13.5715C48.9448 13.5715 50.3284 13.5715 51.7539 13.5715C51.7771 13.7115 51.7934 13.8367 51.8 13.9769C51.8028 14.0358 51.8028 14.0358 51.8057 14.096C51.8077 14.1381 51.8096 14.1801 51.8116 14.2235C51.8148 14.2904 51.818 14.3573 51.8212 14.4242C51.8257 14.5176 51.8301 14.6111 51.8344 14.7046C51.8421 14.8675 51.8498 15.0304 51.8576 15.1932C51.8617 15.2797 51.8658 15.3663 51.8698 15.4528C51.8812 15.6924 51.8976 15.9308 51.9216 16.1694C51.9395 16.1335 51.9574 16.0976 51.9759 16.0606C52.5842 14.86 53.5523 13.9268 54.8397 13.504C56.4671 13.0047 58.4796 13.3396 59.7641 14.4868ZM53.0569 17.4921C52.2328 18.4573 52.1551 19.8672 52.2308 21.0775C52.2971 21.8511 52.4654 22.6708 52.9614 23.2885C52.9924 23.3279 52.9924 23.3279 53.024 23.3681C53.365 23.7786 53.8713 24.0541 54.4033 24.1084C54.507 24.1129 54.61 24.114 54.7139 24.113C54.769 24.1125 54.769 24.1125 54.8252 24.1121C55.4328 24.0994 55.9547 23.8922 56.3897 23.4576C56.9291 22.8882 57.1432 22.0966 57.2211 21.3316C57.2248 21.2971 57.2285 21.2627 57.2324 21.2272C57.3382 20.0421 57.3089 18.5693 56.5503 17.5865C56.1707 17.1362 55.7232 16.8812 55.1416 16.7767C54.3196 16.7168 53.6472 16.8843 53.0569 17.4921Z" fill="#1B5DEF"/>
<path d="M92.6406 13.5044C94.168 13.5044 95.6955 13.5044 97.2692 13.5044C97.2709 14.088 97.2725 14.6716 97.2742 15.2729C97.2754 15.6434 97.2766 16.0138 97.2779 16.3842C97.2785 16.5789 97.2792 16.7736 97.2799 16.9683C97.28 16.9927 97.28 17.0171 97.2801 17.0423C97.2814 17.4348 97.2826 17.8273 97.2836 18.2198C97.2846 18.6234 97.2859 19.0271 97.2874 19.4307C97.2883 19.6571 97.289 19.8834 97.2895 20.1098C97.2899 20.3234 97.2906 20.537 97.2916 20.7506C97.2919 20.8285 97.2921 20.9064 97.2922 20.9842C97.2598 22.2733 97.2598 22.2733 97.8059 23.3901C98.345 23.8332 98.9435 23.9102 99.6171 23.8624C100.107 23.7979 100.515 23.5707 100.858 23.2214C100.877 23.2039 100.895 23.1864 100.914 23.1684C101.549 22.5123 101.578 21.4232 101.577 20.5713C101.577 20.4937 101.578 20.4162 101.578 20.3386C101.579 20.1302 101.579 19.9217 101.579 19.7133C101.58 19.4946 101.581 19.276 101.581 19.0574C101.583 18.6912 101.584 18.3249 101.584 17.9586C101.585 17.5817 101.586 17.2048 101.587 16.8279C101.587 16.7926 101.587 16.7926 101.587 16.7565C101.588 16.5516 101.589 16.3467 101.589 16.1418C101.592 15.2627 101.594 14.3835 101.596 13.5044C103.135 13.5044 104.673 13.5044 106.258 13.5044C106.258 18.0359 106.258 22.5675 106.258 27.2364C104.886 27.2364 103.513 27.2364 102.099 27.2364C102.074 27.1109 102.059 27.0035 102.053 26.8773C102.051 26.8399 102.049 26.8025 102.047 26.764C102.045 26.7238 102.043 26.6837 102.041 26.6424C102.039 26.6007 102.037 26.5591 102.035 26.5161C102.03 26.4055 102.024 26.2949 102.019 26.1842C102.011 26.0291 102.003 25.874 101.995 25.7189C101.991 25.6365 101.987 25.5541 101.983 25.4716C101.972 25.2493 101.956 25.0284 101.931 24.8071C101.916 24.8382 101.9 24.8692 101.885 24.9012C101.637 25.3881 101.335 25.7972 100.959 26.1904C100.93 26.223 100.93 26.223 100.9 26.2562C100.096 27.1274 98.7722 27.4582 97.6382 27.5063C96.2797 27.5521 94.8897 27.2979 93.8638 26.3409C93.0145 25.4894 92.6385 24.2762 92.6362 23.0878C92.6363 23.0503 92.6364 23.0128 92.6365 22.9742C92.6365 22.9335 92.6365 22.8929 92.6364 22.851C92.6364 22.739 92.6365 22.6271 92.6367 22.5151C92.6368 22.3941 92.6368 22.273 92.6367 22.1519C92.6367 21.9425 92.6368 21.733 92.637 21.5236C92.6373 21.2208 92.6374 20.9179 92.6374 20.6151C92.6375 20.1237 92.6377 19.6324 92.638 19.141C92.6383 18.6638 92.6386 18.1866 92.6387 17.7095C92.6387 17.6797 92.6387 17.65 92.6387 17.6194C92.6388 17.3867 92.6389 17.1541 92.6389 16.9215C92.6393 15.7825 92.6399 14.6434 92.6406 13.5044Z" fill="#1B5DEF"/>
<path d="M132.667 14.7825C132.765 14.8715 132.861 14.9635 132.957 15.0561C132.983 15.081 133.01 15.1058 133.037 15.1314C134.146 16.2004 134.698 17.8568 134.738 19.3728C134.752 20.1031 134.753 20.8458 134.634 21.5679C131.568 21.5679 128.502 21.5679 125.343 21.5679C125.545 22.3823 125.784 23.2585 126.543 23.7307C127.061 24.0281 127.581 24.14 128.175 24.1405C128.198 24.1405 128.22 24.1405 128.244 24.1406C128.955 24.1394 129.624 23.992 130.16 23.4889C130.399 23.2373 130.58 22.9351 130.71 22.6138C130.964 22.6807 131.213 22.757 131.462 22.8411C131.498 22.8532 131.534 22.8653 131.571 22.8777C131.688 22.9168 131.805 22.9561 131.921 22.9955C132.002 23.0226 132.083 23.0498 132.164 23.077C132.803 23.2921 133.441 23.51 134.079 23.7305C134.208 23.7751 134.337 23.819 134.466 23.8621C134.227 24.9027 133.41 25.7798 132.542 26.3431C130.548 27.583 128.043 27.7719 125.793 27.239C124.118 26.8186 122.681 25.8183 121.783 24.3313C120.725 22.5301 120.59 20.0855 121.101 18.0869C121.393 17.0069 121.899 16.078 122.66 15.2586C122.686 15.2294 122.713 15.2003 122.741 15.1703C124.84 12.9659 128.77 12.6608 132.667 14.7825ZM126.067 17.3059C125.674 17.8044 125.465 18.3783 125.376 19.0037C127.004 19.0037 128.631 19.0037 130.307 19.0037C130.234 18.5519 130.234 18.5519 130.114 18.118C130.106 18.0929 130.097 18.0679 130.088 18.0421C129.95 17.655 129.761 17.3374 129.468 17.0468C129.45 17.0274 129.431 17.0081 129.412 16.9881C129.036 16.6249 128.469 16.5211 127.968 16.5259C127.929 16.5262 127.891 16.5265 127.852 16.5268C127.166 16.5406 126.534 16.7818 126.067 17.3059Z" fill="#1B5DEF"/>
<path d="M41.6916 13.9429C41.7242 13.9587 41.7242 13.9587 41.7574 13.9747C42.2764 14.2288 42.7386 14.5661 43.1499 14.9724C43.2008 15.0224 43.2524 15.0713 43.3043 15.1202C44.1525 15.9306 44.6391 17.048 44.8864 18.1814C44.8915 18.2043 44.8965 18.2272 44.9018 18.2507C45.0054 18.7592 45.0231 19.2703 45.0209 19.7876C45.0206 19.8889 45.0209 19.9902 45.0213 20.0915C45.022 21.1234 45.022 21.1234 44.9115 21.568C41.8566 21.568 38.8017 21.568 35.6542 21.568C35.8308 22.4116 36.0793 23.2139 36.8162 23.7209C37.5409 24.1747 38.5142 24.263 39.3395 24.0816C39.7831 23.9703 40.168 23.7565 40.4841 23.4237C40.5045 23.4038 40.5249 23.3839 40.546 23.3634C40.7525 23.1486 40.8818 22.8752 41.0208 22.6139C41.2617 22.6775 41.4982 22.7488 41.7337 22.8303C41.7819 22.8469 41.7819 22.8469 41.8312 22.8638C41.9363 22.8999 42.0414 22.9362 42.1465 22.9724C42.22 22.9977 42.2935 23.0229 42.3671 23.0482C42.521 23.101 42.6748 23.1539 42.8287 23.2069C43.1848 23.3294 43.5412 23.4511 43.8976 23.5729C44.0771 23.6342 44.2565 23.6956 44.4359 23.757C44.4961 23.7776 44.5563 23.7982 44.6165 23.8187C44.6589 23.8333 44.7014 23.8478 44.7438 23.8623C44.734 23.9101 44.724 23.9579 44.7139 24.0057C44.7083 24.0323 44.7027 24.0589 44.697 24.0864C44.6655 24.2102 44.6118 24.3189 44.5531 24.4316C44.5412 24.4549 44.5292 24.4782 44.517 24.5022C43.8307 25.825 42.5743 26.6583 41.1915 27.1115C40.422 27.3528 39.6129 27.4854 38.8071 27.5062C38.7789 27.5069 38.7507 27.5076 38.7216 27.5084C36.6221 27.5542 34.5686 27.0263 33.0133 25.5557C32.8374 25.3857 32.6807 25.2064 32.5349 25.0094C32.5215 24.9915 32.508 24.9736 32.4942 24.9552C31.8465 24.0877 31.4575 23.1043 31.2603 22.0404C31.2548 22.0113 31.2493 21.9822 31.2435 21.9522C31.0584 20.9233 31.0656 19.7267 31.2603 18.7002C31.2687 18.6544 31.2687 18.6544 31.2772 18.6077C31.4036 17.937 31.6021 17.2672 31.9317 16.6682C31.9643 16.6091 31.9957 16.5492 32.0271 16.4894C32.2948 15.9942 32.6436 15.5564 33.038 15.1575C33.0548 15.1405 33.0716 15.1234 33.0889 15.1059C35.2144 12.9794 39.0696 12.6563 41.6916 13.9429ZM36.3921 17.2831C36.3673 17.3091 36.3425 17.335 36.3169 17.3618C35.9259 17.8109 35.7499 18.4261 35.6542 19.0038C37.2813 19.0038 38.9084 19.0038 40.5847 19.0038C40.5345 18.6202 40.5345 18.6202 40.4464 18.2489C40.4357 18.2134 40.4357 18.2134 40.4249 18.1771C40.2315 17.565 39.9058 17.0671 39.3437 16.7433C39.2229 16.6868 39.1035 16.6428 38.9748 16.6083C38.9537 16.6024 38.9325 16.5966 38.9108 16.5905C37.9998 16.3592 37.0379 16.6041 36.3921 17.2831Z" fill="#1B5DEF"/>
<path d="M88.0107 14.9672C89.0676 15.9387 89.7279 17.2136 90.0011 18.6241C90.0085 18.6622 90.0085 18.6622 90.0161 18.7011C90.114 19.2504 90.1374 19.8005 90.1353 20.3574C90.1352 20.4073 90.1352 20.4073 90.1351 20.4581C90.1335 20.9691 90.1174 21.469 90.0242 21.9727C90.0186 22.0034 90.013 22.0341 90.0073 22.0658C89.697 23.7114 88.8465 25.2506 87.4616 26.2198C87.3559 26.2914 87.2483 26.3594 87.1397 26.4263C87.1062 26.447 87.1062 26.447 87.0721 26.4682C85.2578 27.5778 82.8486 27.7661 80.8077 27.2814C80.1852 27.1225 79.5879 26.9019 79.0227 26.595C79.0022 26.584 78.9817 26.573 78.9605 26.5617C77.5146 25.7818 76.5154 24.4171 76.0305 22.859C75.7739 21.9873 75.6788 21.0582 75.7022 20.1508C75.7028 20.1271 75.7034 20.1035 75.704 20.0791C75.7561 18.2673 76.305 16.5957 77.5469 15.2586C77.5724 15.2311 77.5978 15.2037 77.6241 15.1754C77.9974 14.7863 78.4262 14.4848 78.8886 14.2126C78.9085 14.2008 78.9284 14.1889 78.9489 14.1767C81.5287 12.6557 85.5291 12.8578 88.0107 14.9672ZM81.1747 17.2978C80.4864 18.1179 80.3904 19.3156 80.3895 20.3406C80.3895 20.3646 80.3895 20.3886 80.3894 20.4133C80.3909 21.4214 80.4846 22.539 81.1358 23.356C81.154 23.3798 81.1722 23.4036 81.191 23.4281C81.5396 23.8593 82.0709 24.0894 82.612 24.148C83.2479 24.2045 83.8748 24.0945 84.3893 23.6934C85.1487 23.0481 85.3572 22.0416 85.4427 21.0877C85.4522 20.9553 85.4585 20.8233 85.4626 20.6906C85.4637 20.6553 85.4637 20.6553 85.4648 20.6194C85.496 19.45 85.4068 18.0814 84.5654 17.1879C84.0991 16.7327 83.4745 16.5604 82.8362 16.5671C82.1867 16.6051 81.631 16.8178 81.1747 17.2978Z" fill="#1B5DEF"/>
<path d="M115.247 9.15186C115.247 10.5881 115.247 12.0244 115.247 13.5042C116.586 13.5042 117.926 13.5042 119.306 13.5042C119.306 14.6065 119.306 15.7088 119.306 16.8445C117.966 16.8445 116.627 16.8445 115.247 16.8445C115.251 17.8464 115.251 17.8464 115.256 18.8483C115.258 19.2571 115.26 19.6658 115.261 20.0746C115.262 20.3724 115.264 20.6702 115.265 20.968C115.266 21.1255 115.267 21.283 115.267 21.4405C115.268 21.5891 115.268 21.7377 115.269 21.8863C115.27 21.9405 115.27 21.9947 115.27 22.0489C115.271 22.6096 115.277 23.2289 115.683 23.6598C116.057 24.025 116.56 24.137 117.068 24.132C117.721 24.1156 118.291 23.9907 118.854 23.6414C118.937 23.5923 118.937 23.5923 119.037 23.5586C119.16 24.14 119.256 24.7257 119.352 25.312C119.373 25.4419 119.394 25.5717 119.416 25.7016C119.457 25.9544 119.499 26.2073 119.54 26.4602C119.481 26.4981 119.423 26.5359 119.364 26.5737C119.331 26.5948 119.298 26.6159 119.264 26.6376C117.679 27.6398 115.45 27.7027 113.673 27.2951C113.026 27.1366 112.392 26.8792 111.893 26.4265C111.856 26.3961 111.856 26.3961 111.818 26.3652C111.047 25.7229 110.722 24.7239 110.623 23.7535C110.566 23.1117 110.576 22.4683 110.578 21.8245C110.578 21.6489 110.578 21.4733 110.579 21.2977C110.579 20.9665 110.579 20.6353 110.58 20.3041C110.581 19.9265 110.581 19.5488 110.581 19.1712C110.582 18.3956 110.583 17.62 110.585 16.8445C109.821 16.8445 109.057 16.8445 108.271 16.8445C108.271 15.7422 108.271 14.6399 108.271 13.5042C109.034 13.5042 109.798 13.5042 110.585 13.5042C110.585 12.491 110.585 11.4779 110.585 10.434C111.056 10.3038 111.527 10.1737 112.012 10.0396C113.409 9.6539 113.409 9.6539 114.805 9.26504C114.834 9.25702 114.862 9.24899 114.892 9.24072C114.944 9.22625 114.996 9.21174 115.047 9.19719C115.21 9.15186 115.21 9.15186 115.247 9.15186Z" fill="#1B5DEF"/>
<path d="M0 5.77783C2.24692 5.77783 4.49383 5.77783 6.80883 5.77783C6.47455 6.45035 6.13238 7.11375 5.76091 7.76602C5.6995 7.87405 5.63847 7.98229 5.57751 8.09057C5.10472 8.92892 4.62627 9.76418 4.09389 10.566C4.02997 10.6624 3.96641 10.7591 3.90297 10.8558C3.09234 12.0916 3.09234 12.0916 2.64974 12.6269C2.79425 12.9053 2.944 13.1797 3.10045 13.4514C3.34235 13.8731 3.5673 14.3036 3.79263 14.7343C3.85724 14.8577 3.9225 14.9807 3.98877 15.1032C4.74313 16.5027 5.18687 18.0275 5.54056 19.5708C5.54575 19.5933 5.55094 19.6158 5.55629 19.6389C5.56624 19.6829 5.57585 19.727 5.58511 19.7712C5.59556 19.82 5.6067 19.8688 5.61869 19.9173C5.69183 20.2499 5.67731 20.5877 5.67605 20.9263C5.67603 20.9979 5.67605 21.0694 5.67608 21.1409C5.6761 21.3342 5.67571 21.5275 5.67524 21.7207C5.67482 21.9231 5.67478 22.1254 5.6747 22.3277C5.67449 22.7104 5.67394 23.0931 5.67327 23.4758C5.67238 23.9933 5.67202 24.5107 5.67163 25.0282C5.671 25.8429 5.66966 26.6576 5.66844 27.4723C3.79785 27.4723 1.92727 27.4723 0 27.4723C0 20.3131 0 13.154 0 5.77783Z" fill="#1B5DEF"/>
<path d="M8.88839 1.56055C8.89946 1.56055 8.91053 1.56055 8.92193 1.56055C8.92212 1.62133 8.92212 1.62133 8.9223 1.68334C8.92406 2.23145 8.9269 2.77955 8.93032 3.32765C8.93046 3.35047 8.9306 3.37329 8.93075 3.3968C8.94384 5.49624 8.99158 7.59461 9.04362 9.69339C9.04438 9.72406 9.04514 9.75473 9.04592 9.78633C9.05316 10.0782 9.06044 10.3701 9.06795 10.6619C9.07064 10.7668 9.07331 10.8717 9.07597 10.9766C9.07778 11.0473 9.07964 11.118 9.0815 11.1887C9.08739 11.4208 9.09134 11.6526 9.08964 11.8848C9.06205 11.8877 9.03447 11.8906 9.00605 11.8937C8.66451 11.9369 8.37609 12.0243 8.13699 12.2847C7.88129 12.6306 7.77306 13.0105 7.81508 13.4368C7.89928 13.8214 8.08929 14.1598 8.41882 14.3815C8.79399 14.571 9.13276 14.645 9.54244 14.5313C9.88406 14.4156 10.1419 14.2197 10.3307 13.9092C10.5246 13.5101 10.5473 13.1539 10.4064 12.7321C10.2725 12.3987 10.0305 12.1305 9.70243 11.9809C9.61874 11.9495 9.53768 11.9316 9.44994 11.915C9.42006 11.9093 9.39018 11.9035 9.35939 11.8976C9.33678 11.8934 9.31418 11.8892 9.29088 11.8848C9.23736 10.8462 9.19509 9.80746 9.15882 8.76814C9.1574 8.72794 9.15599 8.68774 9.15453 8.64632C9.10079 7.11689 9.06297 5.58729 9.03094 4.05727C9.03039 4.0312 9.02985 4.00513 9.02928 3.97827C9.02193 3.62774 9.01472 3.2772 9.0077 2.92665C9.00678 2.88073 9.00585 2.83481 9.00493 2.78889C9.00193 2.64018 8.99901 2.49146 8.99612 2.34275C8.99539 2.30632 8.99466 2.26989 8.99391 2.23235C8.98966 2.00839 8.98818 1.78455 8.98901 1.56055C9.0561 1.59429 9.0561 1.59429 9.08093 1.65112C9.08869 1.67593 9.09646 1.70075 9.10446 1.72632C9.11349 1.75468 9.12252 1.78304 9.13182 1.81226C9.1415 1.84354 9.15119 1.87481 9.16117 1.90704C9.18262 1.97459 9.20407 2.04213 9.22553 2.10968C9.23684 2.14559 9.24815 2.18151 9.25981 2.21852C9.81939 3.99111 10.4451 5.74081 11.3502 7.36779C11.4077 7.47165 11.4644 7.57594 11.521 7.68031C11.824 8.23719 12.1444 8.78137 12.4773 9.32062C12.4968 9.35219 12.5162 9.38375 12.5363 9.41627C12.7905 9.82672 13.0556 10.2298 13.3221 10.6322C13.3374 10.6553 13.3527 10.6784 13.3684 10.7022C13.6612 11.1439 13.958 11.5827 14.2633 12.0156C14.28 12.0393 14.2966 12.0631 14.3137 12.0876C14.3862 12.1911 14.4592 12.2937 14.5349 12.3949C14.5567 12.4242 14.5784 12.4535 14.6009 12.4837C14.6194 12.5079 14.6379 12.5321 14.6571 12.557C14.7047 12.6554 14.6923 12.6916 14.6575 12.7958C14.6115 12.9003 14.5604 13.0019 14.5086 13.1037C14.4935 13.1338 14.4784 13.1639 14.4628 13.1949C14.3792 13.3606 14.2934 13.525 14.2058 13.6886C13.3667 15.262 12.6986 16.9546 12.3494 18.7086C12.3429 18.7409 12.3363 18.7731 12.3296 18.8064C12.2623 19.1648 12.2422 19.5129 12.209 19.8811C10.272 19.8811 8.33496 19.8811 6.33927 19.8811C6.26437 19.5797 6.26437 19.5797 6.23721 19.4385C5.93189 17.8868 5.40875 16.3805 4.7293 14.9551C4.71552 14.9261 4.70175 14.8971 4.68755 14.8672C4.33057 14.1199 3.90516 13.409 3.48828 12.6946C3.5835 12.5176 3.69141 12.3629 3.81531 12.2053C4.57391 11.2234 5.24686 10.1578 5.8697 9.08445C5.88695 9.05483 5.9042 9.02522 5.92197 8.99471C6.77675 7.51864 7.44376 5.97527 7.98338 4.35834C8.01721 4.25706 8.05119 4.15584 8.08521 4.05463C8.36337 3.22651 8.63472 2.39661 8.88839 1.56055Z" fill="#1B5DEF"/>
<path d="M30.4889 13.8079C30.4377 14.2391 30.3863 14.6702 30.335 15.1014C30.3111 15.3017 30.2873 15.5019 30.2635 15.7022C30.2405 15.8958 30.2174 16.0894 30.1943 16.283C30.1856 16.3565 30.1768 16.43 30.1681 16.5035C30.1211 16.8987 30.0733 17.2936 30.0194 17.6879C29.9812 17.6779 29.9431 17.6679 29.9039 17.6576C28.768 17.3599 27.5992 17.3331 26.5563 17.9225C26.4118 18.0095 26.286 18.1138 26.1621 18.2278C26.1278 18.2577 26.1278 18.2577 26.0928 18.2881C25.5522 18.7883 25.2844 19.569 25.2533 20.2941C25.2518 20.3733 25.2513 20.4524 25.2512 20.5316C25.2511 20.5616 25.2509 20.5916 25.2507 20.6226C25.2502 20.7223 25.2499 20.8221 25.2497 20.9219C25.2493 20.9937 25.249 21.0656 25.2486 21.1374C25.2477 21.3319 25.247 21.5263 25.2464 21.7208C25.2456 21.9242 25.2447 22.1277 25.2438 22.3311C25.2421 22.7161 25.2406 23.1011 25.2392 23.4861C25.2372 24.0065 25.235 24.5269 25.2328 25.0474C25.2293 25.8669 25.2262 26.6865 25.223 27.5061C23.6845 27.5061 22.1459 27.5061 20.5608 27.5061C20.5608 22.9746 20.5608 18.443 20.5608 13.7742C21.9222 13.7742 23.2837 13.7742 24.6863 13.7742C24.7534 14.6964 24.8205 15.6186 24.8876 16.5408C24.8951 16.5238 24.9025 16.5067 24.9102 16.4891C24.9447 16.4105 24.9793 16.3319 25.0139 16.2532C25.0256 16.2264 25.0374 16.1996 25.0495 16.172C25.5094 15.1276 26.242 14.2176 27.3208 13.7851C28.2889 13.4159 29.5484 13.3278 30.4889 13.8079Z" fill="#1B5DEF"/>
<path d="M11.3035 5.84521C11.6146 5.86235 11.9173 5.89619 12.2237 5.95276C12.2643 5.9602 12.3048 5.96765 12.3466 5.97532C13.6558 6.22284 14.9895 6.69649 15.9992 7.59967C16.0265 7.62341 16.0537 7.64716 16.0818 7.67163C16.1674 7.74748 16.2513 7.82491 16.3346 7.90332C16.3664 7.93307 16.3982 7.96282 16.4309 7.99347C17.6104 9.12316 18.2038 10.8227 18.2533 12.4367C18.2574 12.6308 18.2577 12.8249 18.2569 13.0191C18.2568 13.0704 18.2568 13.0704 18.2567 13.1227C18.2502 15.0396 17.6738 16.7925 16.3234 18.1725C16.1905 18.3036 16.0468 18.4184 15.8986 18.5313C15.8674 18.556 15.8362 18.5808 15.804 18.6064C15.5463 18.8076 15.2757 18.9762 14.993 19.1386C14.9638 19.1557 14.9638 19.1557 14.934 19.1732C14.367 19.5047 13.5095 19.9483 12.8464 19.9483C13.1393 17.4312 14.2146 14.9891 15.4006 12.7767C15.421 12.7384 15.4415 12.7001 15.4626 12.6606C15.4927 12.6068 15.4927 12.6068 15.5235 12.5519C15.5686 12.4641 15.5686 12.4641 15.5599 12.3863C15.5219 12.307 15.4748 12.2541 15.4143 12.1903C15.2384 11.9971 15.0819 11.7905 14.9259 11.5809C14.9082 11.5572 14.8904 11.5334 14.8721 11.5089C14.5772 11.1129 14.2947 10.7095 14.0203 10.2988C13.9945 10.2603 13.9945 10.2603 13.9681 10.2209C13.1975 9.06824 12.4724 7.88631 11.773 6.6887C11.75 6.64929 11.7269 6.60989 11.7039 6.57048C11.6374 6.45673 11.571 6.34288 11.5047 6.229C11.4844 6.19418 11.4641 6.15936 11.4431 6.12348C11.4247 6.09176 11.4063 6.06004 11.3873 6.02736C11.3711 5.99941 11.3548 5.97146 11.3381 5.94266C11.3035 5.87895 11.3035 5.87895 11.3035 5.84521Z" fill="#1B5DEF"/>
<path d="M8.98896 1.56055C9.05605 1.59429 9.05605 1.59429 9.08087 1.65112C9.08864 1.67593 9.09641 1.70075 9.10441 1.72632C9.11344 1.75468 9.12246 1.78304 9.13177 1.81226C9.14145 1.84354 9.15114 1.87481 9.16112 1.90704C9.18257 1.97459 9.20403 2.04214 9.22549 2.10969C9.2368 2.14561 9.24811 2.18153 9.25977 2.21854C9.45165 2.82642 9.65187 3.43075 9.86942 4.02985C9.88048 4.06033 9.89154 4.09081 9.90294 4.12221C10.0658 4.56943 10.2361 5.01351 10.4161 5.45405C10.4314 5.4918 10.4468 5.52954 10.4627 5.56843C10.4761 5.60103 10.4896 5.63363 10.5034 5.66722C10.5319 5.74424 10.5319 5.74424 10.5319 5.81172C10.0559 5.81172 9.57996 5.81172 9.08959 5.81172C9.05105 5.19148 9.05105 5.19148 9.04608 4.90987C9.04509 4.86178 9.04509 4.86178 9.04408 4.81272C9.04198 4.70899 9.04003 4.60527 9.0381 4.50155C9.03665 4.42832 9.03519 4.35509 9.03373 4.28186C9.0307 4.1294 9.02775 3.97693 9.02485 3.82446C9.02116 3.62988 9.01734 3.4353 9.01347 3.24072C9.00975 3.05369 9.0061 2.86665 9.00246 2.67962C9.00177 2.64444 9.00107 2.60926 9.00036 2.57301C8.9984 2.47263 8.99649 2.37225 8.99459 2.27187C8.99401 2.24282 8.99344 2.21377 8.99285 2.18383C8.989 1.97606 8.98837 1.76836 8.98896 1.56055Z" fill="#000A3A"/>
<path d="M8.88837 1.56055C8.89944 1.56055 8.9105 1.56055 8.92191 1.56055C8.92191 2.96343 8.92191 4.36632 8.92191 5.81172C8.45703 5.81172 7.99215 5.81172 7.51318 5.81172C7.5565 5.61566 7.59683 5.44756 7.66333 5.26227C7.6802 5.21479 7.69707 5.1673 7.71393 5.11982C7.72286 5.09489 7.73179 5.06996 7.74099 5.04427C7.93142 4.51174 8.11312 3.97633 8.29092 3.43941C8.30227 3.40514 8.31362 3.37087 8.32531 3.33556C8.52021 2.74611 8.7081 2.15468 8.88837 1.56055Z" fill="#000A3A"/>
</svg>
